<svg xmlns="http://www.w3.org/2000/svg" viewBox="0 0 3047.98 1075.89"><defs><style>.cls-1{fill:#231f20;}</style></defs><title>Eydean</title><g id="Black_Logo_Marks" data-name="Black Logo Marks"><path class="cls-1" d="M1231.51,472.31q-41.49-52.69-111-52.7-67.48,0-107.73,51.44Q981,511.49,981,563.22q0,54.91,37.52,98.51t104,43.6q30,0,53.73-9.13A132.86,132.86,0,0,0,1219,669.59q19-17.49,33.48-46l-29.44-15.49q-16,26.63-29.77,38.57t-33.39,19.17a116.52,116.52,0,0,1-40.38,7.2q-43,0-72.25-30.26T1017,565.21h244.5Q1261,509.53,1231.51,472.31Zm-211,62.68q10.76-37.47,31.76-56.2Q1081,453.06,1121,453.06a108.71,108.71,0,0,1,46.26,10.24q22,10.26,35.37,27t20.4,44.72Z"/><polygon class="cls-1" points="1403.93 635.84 1310.55 426.6 1273.61 426.6 1385.13 677.73 1332.82 797.72 1369.76 797.72 1531.85 426.6 1494.63 426.6 1403.93 635.84"/><path class="cls-1" d="M1791.5,476.56q-20.48-28.47-47.58-42.73t-60.56-14.22q-57.94,0-99.14,41.7T1543,561.72q0,59.92,40.86,101.76t98.5,41.85q32.46,0,59.82-13.5t49.32-40.23v46.74H1826V321.71H1791.5Zm-11.6,142.89q-13.83,24.72-39.53,39.17A109.2,109.2,0,0,1,1686,673.09a103.18,103.18,0,0,1-53.25-14.59,106.74,106.74,0,0,1-39.53-40.8,110,110,0,0,1-.15-109.74,105.41,105.41,0,0,1,93.17-54.63q45.42,0,76.48,31.67t31.06,78.83Q1793.76,594.79,1779.9,619.45Z"/><path class="cls-1" d="M2134,472.31q-41.53-52.69-111-52.7-67.48,0-107.73,51.44-31.77,40.44-31.76,92.17,0,54.91,37.52,98.51t104,43.6q30,0,53.75-9.13a133.1,133.1,0,0,0,42.73-26.61q19-17.49,33.51-46l-29.47-15.49q-16,26.63-29.77,38.57t-33.39,19.17a116.6,116.6,0,0,1-40.38,7.2q-43,0-72.26-30.26t-30.25-77.62H2164Q2163.49,509.53,2134,472.31ZM1923,535q10.77-37.47,31.77-56.2,28.74-25.73,68.76-25.73a108.64,108.64,0,0,1,46.25,10.24q22,10.26,35.38,27t20.4,44.72Z"/><path class="cls-1" d="M2454.67,476.56q-20.48-28.47-47.58-42.73t-60.53-14.22q-57.95,0-99.17,41.7T2206.2,561.72q0,59.92,40.83,101.76t98.53,41.85q32.46,0,59.79-13.5t49.32-40.23v46.74h34.48V426.6h-34.48ZM2443.1,619.45a101.16,101.16,0,0,1-39.56,39.17,109.09,109.09,0,0,1-54.36,14.47,103.21,103.21,0,0,1-53.28-14.59,107,107,0,0,1-39.53-40.8,110.08,110.08,0,0,1-.12-109.74q14.6-25.95,39.29-40.29a105.14,105.14,0,0,1,53.88-14.34q45.38,0,76.45,31.67t31.06,78.83Q2456.93,594.79,2443.1,619.45Z"/><path class="cls-1" d="M2786.29,476.8a92.23,92.23,0,0,0-34.86-41.7q-23.59-15.51-54.06-15.49a114.11,114.11,0,0,0-55.45,13.86q-25.44,13.83-46.43,41.82V426.6h-35V698.34h35V598.66q0-53.7,5-73.92,8-31,33.11-51.95t56.81-21q27.75,0,44.95,13.62T2758.66,506q3.89,15.78,3.88,62.71V698.34h35V558.46Q2797.53,503,2786.29,476.8Z"/><circle class="cls-1" cx="527.28" cy="547.86" r="124.91" transform="translate(-160.28 223.15) rotate(-20.82)"/><path class="cls-1" d="M791.75,283.41a115,115,0,0,0-162.42,0c-1.51,1.5-3,3-4.37,4.64-98.81-37-214.64-15.82-294,63.52C222.77,459.81,222.77,635.9,331,744.14A277.77,277.77,0,0,0,787.23,450.07c1.53-1.38,3-2.8,4.52-4.28A115,115,0,0,0,791.75,283.41ZM660.85,304.5A78,78,0,0,1,770.71,414.27c-1.56,1.87-3.22,3.71-5,5.49a78.05,78.05,0,0,1-127.13-85.4,78.4,78.4,0,0,1,16.78-24.92C657.14,307.69,659,306,660.85,304.5ZM768,547.85a240.75,240.75,0,0,1-411,170.26c-93.9-93.87-93.9-246.61,0-340.48a241.21,241.21,0,0,1,247.63-57.7A115,115,0,0,0,755.35,470.38,241.16,241.16,0,0,1,768,547.85Z"/></g></svg>